<svg width="100" height="100" viewBox="0 0 100 100" fill="none" xmlns="http://www.w3.org/2000/svg">
<circle cx="50" cy="50" r="50" fill="#FECE01"/>
<path fill-rule="evenodd" clip-rule="evenodd" d="M57.277 22.035C57.1522 22.012 57.0236 22 56.8921 22C56.7606 22 56.632 22.012 56.5072 22.035H38.9036C31.9021 22.035 26 27.715 26 34.643V64.7993C26 72.1196 31.6428 77.9196 38.9036 77.9196H61.392C68.2978 77.9196 74 71.834 74 64.7993V38.9977C74 38.4527 73.7892 37.9288 73.4118 37.5356L59.1542 22.6841C58.7561 22.2694 58.2061 22.035 57.6312 22.035H57.277ZM54.7809 26.253L38.9037 26.2553C34.1986 26.2553 30.2225 30.0818 30.2225 34.6409V64.7971C30.2225 69.8111 34.0012 73.6951 38.9037 73.6951H61.3921C65.9023 73.6951 69.7777 69.5591 69.7777 64.7971L69.7759 41.6568L67.3117 41.6652C66.3725 41.6641 65.3042 41.6621 64.1163 41.6594C59.1352 41.6489 55.0701 37.7446 54.7957 32.8301L54.7809 32.2998V26.253ZM67.4654 37.4366L64.1256 37.437C61.2953 37.431 59.0033 35.1329 59.0033 32.2998V28.6221L67.4654 37.4366ZM56.3568 58.0525C57.5227 58.0525 58.4679 58.9977 58.4679 60.1637C58.4679 61.2325 57.6737 62.1158 56.6432 62.2556L56.3568 62.2749H41.1646C39.9987 62.2749 39.0535 61.3297 39.0535 60.1637C39.0535 59.0949 39.8477 58.2116 40.8782 58.0718L41.1646 58.0525H56.3568ZM52.7214 46.2237C52.7214 45.0577 51.7762 44.1125 50.6102 44.1125H41.1633L40.8769 44.1317C39.8464 44.2715 39.0522 45.1549 39.0522 46.2237C39.0522 47.3896 39.9974 48.3349 41.1633 48.3349H50.6102L50.8967 48.3156C51.9272 48.1758 52.7214 47.2925 52.7214 46.2237Z" fill="white"/>
</svg>
