<svg width="100" height="100" viewBox="0 0 100 100" fill="none" xmlns="http://www.w3.org/2000/svg">
<circle cx="50" cy="50" r="50" fill="#85BD00"/>
<path fill-rule="evenodd" clip-rule="evenodd" d="M60.4611 26H39.5389C31.4141 26 26 31.8078 26 40.1436V59.8564C26 68.2 31.3998 74 39.5389 74H60.4611C68.6002 74 74 68.2 74 59.8564V40.1436C74 31.8 68.6002 26 60.4611 26ZM39.5389 29.3491H60.4611C66.6951 29.3491 70.6512 33.5983 70.6512 40.1439V59.8566C70.6512 66.4021 66.6951 70.6514 60.4611 70.6514H39.5389C33.3049 70.6514 29.3489 66.4021 29.3489 59.8566V40.1439C29.3489 33.607 33.3182 29.3491 39.5389 29.3491ZM51.7441 38.4299C51.6332 37.6126 50.9326 36.9827 50.085 36.9827C49.1602 36.9827 48.4105 37.7324 48.4105 38.6571V61.3014L48.4258 61.5286C48.5367 62.3458 49.2373 62.9758 50.085 62.9758C51.0097 62.9758 51.7594 62.2261 51.7594 61.3014V38.6571L51.7441 38.4299ZM41.3256 45.7575C41.2147 44.9402 40.5141 44.3103 39.6664 44.3103C38.7417 44.3103 37.992 45.06 37.992 45.9847V61.3004L38.0073 61.5276C38.1182 62.3449 38.8187 62.9748 39.6664 62.9748C40.5912 62.9748 41.3408 62.2251 41.3408 61.3004V45.9847L41.3256 45.7575ZM60.3336 52.4035C61.1813 52.4035 61.8818 53.0334 61.9927 53.8507L62.008 54.0779V61.3002C62.008 62.225 61.2583 62.9747 60.3336 62.9747C59.4859 62.9747 58.7853 62.3447 58.6744 61.5275L58.6591 61.3002V54.0779C58.6591 53.1531 59.4088 52.4035 60.3336 52.4035Z" fill="white"/>
</svg>
