<svg width="32" height="29" viewBox="0 0 32 29" fill="none" xmlns="http://www.w3.org/2000/svg">
<path fill-rule="evenodd" clip-rule="evenodd" d="M23.9024 0C26.048 0 28.112 0.848 29.6304 2.3696C31.1504 3.888 32 5.936 32 8.08V20.72C32 25.184 28.368 28.8 23.9024 28.8H8.096C3.6304 28.8 0 25.184 0 20.72V8.08C0 3.616 3.6144 0 8.096 0H23.9024ZM26.4478 10.4635L26.5758 10.3355C26.9582 9.87148 26.9582 9.19948 26.5582 8.73549C26.3358 8.49708 26.0302 8.35149 25.7118 8.31948C25.3758 8.30188 25.0558 8.41549 24.8142 8.63949L17.5998 14.3995C16.6718 15.1691 15.3422 15.1691 14.3998 14.3995L7.19982 8.63949C6.70222 8.27149 6.01422 8.31948 5.59982 8.75148C5.16782 9.18349 5.11982 9.87148 5.48622 10.3515L5.69582 10.5595L12.9758 16.2395C13.8718 16.9435 14.9582 17.3275 16.0958 17.3275C17.2302 17.3275 18.3358 16.9435 19.2302 16.2395L26.4478 10.4635Z" fill="white"/>
</svg>
