<svg width="100" height="100" viewBox="0 0 100 100" fill="none" xmlns="http://www.w3.org/2000/svg">
<circle cx="50" cy="50" r="50" fill="#8B191D"/>
<path d="M40.256 44.2527C40.4028 44.6942 40.3684 45.1758 40.1603 45.5919C39.9523 46.0079 39.5876 46.3244 39.1464 46.4719C38.6073 46.6423 38.1073 46.9178 37.6753 47.2824C37.2432 47.647 36.8875 48.0935 36.6288 48.5962C35.9757 49.8181 35.5333 51.8371 35.9441 55.1237C35.9902 55.5798 35.856 56.0358 35.5703 56.3943C35.2846 56.7528 34.87 56.9854 34.4151 57.0422C33.9602 57.0991 33.5011 56.9758 33.136 56.6986C32.7708 56.4215 32.5285 56.0125 32.4609 55.5591C31.9939 51.8231 32.4258 49.014 33.5319 46.9424C34.6555 44.8356 36.3655 43.698 38.0333 43.1432C38.2521 43.07 38.4832 43.0406 38.7133 43.0567C38.9435 43.0729 39.1682 43.1342 39.3746 43.2373C39.581 43.3403 39.7651 43.4831 39.9164 43.6573C40.0676 43.8315 40.183 44.0339 40.256 44.2527ZM57.5806 25.4042C58.0097 25.247 58.3607 24.9287 58.5588 24.5169C58.757 24.1051 58.7867 23.6323 58.6418 23.1989C58.4969 22.7655 58.1887 22.4057 57.7827 22.1959C57.3767 21.9861 56.9049 21.9429 56.4676 22.0755C53.174 23.171 51.1234 25.8747 49.9155 28.7715C49.7533 29.1631 49.6046 29.5601 49.4696 29.9618C48.8118 28.7158 47.9702 27.5759 46.9731 26.5805C45.6234 25.2279 44.0114 24.1658 42.2361 23.4593C40.4608 22.7528 38.5598 22.4169 36.6499 22.4723C34.6168 22.5284 32.9876 24.1577 32.9314 26.1907C32.8756 28.126 33.2215 30.0519 33.9473 31.8468C34.6732 33.6417 35.7631 35.2667 37.1485 36.6192C34.199 37.2581 31.5336 38.8296 29.5466 41.1011C27.5597 43.3726 26.3568 46.2235 26.116 49.2317L26.095 49.4916C25.6325 55.2757 26.8661 61.0692 29.6449 66.1631L30.9054 68.4701C30.9405 68.5333 30.9756 68.5929 31.0178 68.6526L34.5291 73.5684C35.3246 74.6832 36.3535 75.6112 37.5441 76.288C38.7346 76.9648 40.0584 77.3741 41.4232 77.4874C42.788 77.6007 44.1611 77.4152 45.447 76.944C46.7329 76.4728 47.9007 75.7271 48.8691 74.7588C49.0178 74.61 49.1944 74.492 49.3887 74.4115C49.583 74.331 49.7912 74.2896 50.0015 74.2896C50.2118 74.2896 50.4201 74.331 50.6144 74.4115C50.8087 74.492 50.9852 74.61 51.1339 74.7588C52.1021 75.7273 53.2697 76.4732 54.5555 76.9447C55.8412 77.4162 57.2142 77.602 58.579 77.489C59.9438 77.3761 61.2677 76.9671 62.4584 76.2907C63.6491 75.6142 64.6782 74.6865 65.474 73.5719L68.9853 68.6526C69.0265 68.5942 69.064 68.5332 69.0976 68.4701L70.3582 66.1631C73.1357 61.0688 74.3681 55.2753 73.9046 49.4916L73.887 49.2317C73.7316 47.2928 73.1752 45.4072 72.2529 43.6945C71.3306 41.9819 70.0626 40.4794 68.5293 39.2825C66.996 38.0855 65.2307 37.2201 63.3454 36.7411C61.4601 36.2621 59.4958 36.1799 57.5771 36.4998L51.7589 37.4689C51.794 35.0778 52.2154 32.3846 53.1599 30.1198C54.1431 27.7497 55.6038 26.0643 57.5806 25.4042ZM45.5018 37.0125L44.9611 36.9247C42.8992 36.5269 41.0043 35.5189 39.5221 34.0314C38.5076 33.0193 37.711 31.8103 37.1814 30.4788C36.6518 29.1472 36.4004 27.7214 36.4427 26.289C36.4436 26.2083 36.4761 26.1311 36.5332 26.074C36.5903 26.0169 36.6675 25.9844 36.7482 25.9835C38.1808 25.9417 39.6068 26.1937 40.9384 26.7239C42.2699 27.2541 43.4788 28.0513 44.4906 29.0664C46.6219 31.1978 47.6507 34.0103 47.57 36.8053C47.57 36.8867 47.5379 36.9647 47.4807 37.0226C47.4235 37.0804 47.3458 37.1134 47.2645 37.1143C46.6751 37.1294 46.0855 37.0954 45.5018 37.0125ZM44.3501 40.3833L44.9576 40.4851L47.6929 40.9416C49.2214 41.1963 50.7816 41.1963 52.3102 40.9416L58.153 39.9655C59.5922 39.7254 61.0656 39.787 62.4798 40.1463C63.894 40.5056 65.2182 41.1548 66.3683 42.0527C67.5184 42.9506 68.4694 44.0777 69.1611 45.3624C69.8528 46.6472 70.27 48.0617 70.3863 49.5161L70.4074 49.776C70.8159 54.8803 69.7275 59.993 67.2753 64.4883L66.0674 66.7004L62.6158 71.5319C62.1166 72.2316 61.471 72.8141 60.7239 73.2389C59.9767 73.6637 59.146 73.9206 58.2895 73.9918C57.4329 74.063 56.5712 73.9467 55.7642 73.6511C54.9571 73.3554 54.2242 72.8875 53.6164 72.2798C53.1416 71.8046 52.5778 71.4276 51.9573 71.1704C51.3367 70.9132 50.6715 70.7808 49.9998 70.7808C49.328 70.7808 48.6629 70.9132 48.0423 71.1704C47.4217 71.4276 46.8579 71.8046 46.3832 72.2798C45.7754 72.8868 45.0427 73.3542 44.236 73.6495C43.4293 73.9448 42.568 74.0609 41.712 73.9898C40.8559 73.9186 40.0256 73.6619 39.2787 73.2374C38.5319 72.813 37.8865 72.231 37.3873 71.5319L33.9357 66.7004L32.7278 64.4883C30.2756 59.993 29.1872 54.8803 29.5957 49.776L29.6168 49.5161C29.7331 48.0617 30.1503 46.6472 30.842 45.3624C31.5336 44.0777 32.4847 42.9506 33.6348 42.0527C34.7849 41.1548 36.109 40.5056 37.5232 40.1463C38.9374 39.787 40.4108 39.7254 41.8501 39.9655L44.3501 40.3833Z" fill="white"/>
</svg>
