<svg width="77" height="22" viewBox="0 0 77 22" fill="none" xmlns="http://www.w3.org/2000/svg">
<path d="M11.9885 0.47826H9.32439C8.93688 0.47826 8.71891 0.693478 8.71891 1.07609V6.76739H3.87507V1.07609C3.87507 0.693478 3.6571 0.47826 3.26959 0.47826H0.60548C0.217973 0.47826 0 0.693478 0 1.07609V16.6196C0 17.0022 0.217973 17.2174 0.60548 17.2174H3.26959C3.6571 17.2174 3.87507 17.0022 3.87507 16.6196V10.45H8.71891V16.6196C8.71891 17.0022 8.93688 17.2174 9.32439 17.2174H11.9885C12.376 17.2174 12.594 17.0022 12.594 16.6196V1.07609C12.594 0.693478 12.376 0.47826 11.9885 0.47826Z" fill="white"/>
<path d="M20.7716 4.92609C16.9449 4.92609 14.2808 7.67609 14.2808 11.2391C14.2808 14.8022 16.848 17.5522 20.8684 17.5522C23.3388 17.5522 25.3248 16.4761 26.2693 14.3957C26.4631 14.013 26.2209 13.7261 25.7849 13.7261L23.4599 13.75C23.145 13.75 22.9513 13.8696 22.7091 14.0609C22.2731 14.4196 21.595 14.6587 20.9169 14.6587C19.6333 14.6587 18.5192 14.1087 18.0832 12.6739H23.2177H26.1724C26.5357 12.6739 26.7779 12.5065 26.8264 12.1239C26.8506 11.837 26.8748 11.55 26.8748 11.2391C26.8748 7.62826 24.3076 4.92609 20.7716 4.92609ZM18.059 9.94783C18.4223 8.77609 19.3668 8.10652 20.7473 8.10652C21.813 8.10652 22.8786 8.6087 23.2419 9.94783H18.059Z" fill="white"/>
<path d="M33.417 4.92609C30.9466 4.92609 28.7185 6.2413 28.4036 8.82391C28.3794 9.23044 28.6216 9.44565 29.0091 9.44565H31.3826C31.7459 9.44565 31.867 9.25435 32.0123 8.91957C32.206 8.51304 32.6662 8.22609 33.417 8.22609C34.4342 8.22609 34.9186 8.75217 34.9186 9.92391V11.0239C34.2647 10.5217 33.2959 10.0913 31.7943 10.0913C29.663 10.0913 27.7981 11.3348 27.7981 13.8217C27.7981 16.3087 29.663 17.5522 31.7943 17.5522C33.2959 17.5522 34.2647 17.05 34.9186 16.2848V16.6196C34.9186 17.0022 35.1366 17.2174 35.5241 17.2174H37.8491C38.2366 17.2174 38.4546 17.0022 38.4546 16.6196V9.68478C38.4546 6.45652 36.0811 4.92609 33.417 4.92609ZM33.0779 15.0174C31.9639 15.0174 31.431 14.5152 31.431 13.8217C31.431 13.1283 31.9639 12.6261 33.0779 12.6261C34.2647 12.6261 34.9186 13.0804 34.9186 13.8217C34.9186 14.5152 34.2647 15.0174 33.0779 15.0174Z" fill="white"/>
<path d="M40.9181 17.2174H43.3401C43.7276 17.2174 43.9455 17.0022 43.9455 16.6196V0.597826C43.9455 0.215217 43.7276 0 43.3401 0H40.9181C40.5306 0 40.3127 0.215217 40.3127 0.597826V16.6196C40.3127 17.0022 40.5306 17.2174 40.9181 17.2174Z" fill="white"/>
<path d="M52.0533 5.26087H50.7212V2.03261C50.7212 1.65 50.5033 1.43478 50.1158 1.43478H47.6938C47.3063 1.43478 47.0884 1.65 47.0884 2.03261V5.26087H45.7563C45.3688 5.26087 45.1508 5.47609 45.1508 5.8587V8.10652C45.1508 8.48913 45.3688 8.70435 45.7563 8.70435H47.0884V16.6196C47.0884 17.0022 47.3063 17.2174 47.6938 17.2174H50.1158C50.5033 17.2174 50.7212 17.0022 50.7212 16.6196V8.70435H52.0533C52.4408 8.70435 52.6588 8.48913 52.6588 8.10652V5.8587C52.6588 5.47609 52.4408 5.26087 52.0533 5.26087Z" fill="white"/>
<path d="M60.6473 4.92609C59.0973 4.92609 58.0559 5.52391 57.4988 6.36087V1.07609C57.4988 0.693478 57.2809 0.47826 56.8933 0.47826H54.4714C54.0839 0.47826 53.8659 0.693478 53.8659 1.07609V16.6196C53.8659 17.0022 54.0839 17.2174 54.4714 17.2174H56.8933C57.2809 17.2174 57.4988 17.0022 57.4988 16.6196V10.2348C57.4988 8.82391 58.177 8.22609 59.2668 8.22609C60.1872 8.22609 60.8895 8.75217 60.8895 9.94783V16.6196C60.8895 17.0022 61.1075 17.2174 61.495 17.2174H63.9169C64.3044 17.2174 64.5224 17.0022 64.5224 16.6196V9.63696C64.5224 6.64783 62.8997 4.92609 60.6473 4.92609Z" fill="white"/>
<path d="M73.1527 5.76304L71.1668 12.0761L68.866 5.73913C68.7449 5.42826 68.5269 5.26087 68.1878 5.26087H65.5722C65.1362 5.26087 64.9424 5.54783 65.0878 5.95435L69.3503 17.0261L67.8972 21.3304C67.7519 21.7609 67.9698 22 68.4058 22H71.0215C71.3605 22 71.6269 21.8565 71.7238 21.5217L76.9552 5.93043C77.1005 5.5 76.8825 5.26087 76.4466 5.26087H73.8309C73.4918 5.26087 73.2496 5.42826 73.1527 5.76304Z" fill="white"/>
</svg>
